#!OML:ASF F:\VICON\USERDATA\INSTALL\rory3\rory3.ASF
:FULLY-SPECIFIED
:DEGREES
80
root 0.549894 17.7149 -14.8979 -1.536 0.831605 2.349
lowerback 7.85233 -1.97242 -5.22894
upperback 0.178424 -3.01007 2.13284
thorax -3.83457 -1.38287 5.49634
lowerneck -15.9732 -2.36664 -1.40961
upperneck 20.0206 -2.72952 -0.892951
head 8.91588 -1.48998 -0.405544
rclavicle -3.42407e-014 2.14687e-014
rhumerus -37.0971 -10.0717 -79.9321
rradius 30.6051
rwrist 2.10774
rhand -13.0686 21.8721
rfingers 7.12502
rthumb 13.0271 -7.70113
lclavicle -3.42407e-014 2.14687e-014
lhumerus -31.3621 -5.90345 78.6984
lradius 38.4535
lwrist 3.78277
lhand -22.2639 32.0334
lfingers 7.12502
lthumb 4.1539 61.9726
rfemur -29.444 4.11583 18.1504
rtibia 22.0037
rfoot -4.98534 -7.03292
rtoes -6.57469
lfemur 16.3914 -5.39891 -27.3598
ltibia 21.4238
lfoot -14.8443 -3.93551
ltoes -23.5938
81
root 0.524525 17.7377 -14.6737 -1.65524 0.948194 2.10645
lowerback 7.78444 -2.06692 -5.21467
upperback 0.128511 -3.1228 2.3736
thorax -3.82118 -1.43698 5.75124
lowerneck -15.972 -2.3246 -1.53924
upperneck 20.201 -2.59831 -1.06699
head 8.97731 -1.45828 -0.429047
rclavicle -2.92959e-014 1.82882e-014
rhumerus -37.2981 -10.0622 -79.616
rradius 30.4086
rwrist 2.64032
rhand -12.8104 20.8594
rfingers 7.12502
rthumb 13.2759 -8.6978
lclavicle -2.92959e-014 1.82882e-014
lhumerus -31.7128 -5.23365 78.987
lradius 38.0983
lwrist 3.61633
lhand -22.3583 32.5827
lfingers 7.12502
lthumb 4.06281 62.5237
rfemur -29.3118 4.45247 18.3674
rtibia 22.8906
rfoot -3.71686 -7.26542
rtoes -7.94714
lfemur 16.7958 -5.7316 -27.1014
ltibia 22.0396
lfoot -13.674 -4.96766
ltoes -24.0949
82
root 0.506958 17.7614 -14.4506 -1.76362 1.21127 1.60453
lowerback 7.82268 -2.16149 -4.60337
upperback 0.0405509 -3.19036 2.51225
thorax -3.95007 -1.47426 5.56228
lowerneck -16.019 -2.31184 -1.71885
upperneck 20.4414 -2.56835 -0.911758
head 9.07389 -1.44203 -0.345847
rclavicle -6.85807e-014 8.74653e-015
rhumerus -37.6998 -10.5105 -79.2538
rradius 30.2147
rwrist 3.15976
rhand -12.9386 21.2679
rfingers 7.12502
rthumb 13.1524 -8.29733
lclavicle -6.85807e-014 8.74653e-015
lhumerus -31.9449 -4.90163 79.1915
lradius 37.7396
lwrist 3.49375
lhand -21.9243 33.8814
lfingers 7.12502
lthumb 4.4819 63.814
rfemur -28.9771 4.5466 18.8637
rtibia 23.4983
rfoot -3.0861 -7.0448
rtoes -7.08477
lfemur 16.962 -6.19225 -26.5725
ltibia 23.07
lfoot -12.3397 -5.90983
ltoes -24.7807
83
root 0.492172 17.7885 -14.2322 -1.84722 1.31646 0.903788
lowerback 7.71967 -2.21652 -3.67599
upperback 0.0343159 -3.17263 2.59912
thorax -3.94525 -1.4825 5.12036
lowerneck -16.1059 -2.32864 -1.60624
upperneck 20.5554 -2.6344 -0.846216
head 9.12838 -1.45714 -0.352612
rclavicle -2.63887e-014 3.18055e-014
rhumerus -37.9274 -11.1564 -79.0385
rradius 29.8471
rwrist 3.47453
rhand -12.9993 21.3784
rfingers 7.12502
rthumb 13.0939 -8.19057
lclavicle -2.63887e-014 3.18055e-014
lhumerus -31.9957 -4.62904 79.2419
lradius 37.1589
lwrist 3.63808
lhand -22.8075 31.3935
lfingers 7.12502
lthumb 3.62903 61.3423
rfemur -28.6226 4.72471 19.622
rtibia 24.0661
rfoot -2.45796 -6.27831
rtoes -5.44325
lfemur 16.8348 -6.45752 -25.7871
ltibia 24.4317
lfoot -10.8619 -6.81518
ltoes -25.3159
84
root 0.47706 17.8058 -14.0197 -1.97147 1.10396 0.264072
lowerback 7.68887 -2.23729 -3.01237
upperback 0.0172717 -3.13212 2.79034
thorax -3.97462 -1.47244 4.94039
lowerneck -15.9688 -2.31754 -1.54156
upperneck 20.5142 -2.60986 -0.973671
head 9.08605 -1.45493 -0.401514
rclavicle -4.73604e-014 9.54166e-015
rhumerus -38.0772 -11.5816 -78.7319
rradius 29.4417
rwrist 3.38552
rhand -12.4479 21.6254
rfingers 7.12502
rthumb 13.6254 -7.90868
lclavicle -4.73604e-014 9.54166e-015
lhumerus -32.3261 -4.12779 79.3688
lradius 36.6877
lwrist 4.04257
lhand -23.5602 30.0214
lfingers 7.12502
lthumb 2.90211 59.9814
rfemur -28.2398 5.1292 20.3636
rtibia 24.6489
rfoot -1.55647 -5.44633
rtoes -4.27283
lfemur 16.5314 -6.50242 -25.1033
ltibia 26.0901
lfoot -9.25446 -7.74248
ltoes -25.5187
85
root 0.463435 17.8109 -13.8056 -2.06162 0.655678 -0.137612
lowerback 7.58454 -2.15637 -2.62157
upperback 0.014548 -2.98026 2.97488
thorax -3.9448 -1.40379 4.89224
lowerneck -15.9558 -2.30703 -1.66753
upperneck 20.6208 -2.54211 -1.06317
head 9.12137 -1.44363 -0.403763
rclavicle 7.00964e-014 -2.38542e-014
rhumerus -38.1471 -11.7794 -78.3672
rradius 29.0336
rwrist 2.5188
rhand -11.4298 21.0285
rfingers 7.12502
rthumb 14.6065 -8.43716
lclavicle 7.00964e-014 -2.38542e-014
lhumerus -32.5602 -3.35576 79.5556
lradius 36.2656
lwrist 3.89449
lhand -22.9409 32.3597
lfingers 7.12502
lthumb 3.50014 62.3107
rfemur -27.9208 5.29825 21.015
rtibia 25.3268
rfoot -0.767743 -4.72001
rtoes -2.64788
lfemur 16.205 -6.26541 -24.6755
ltibia 27.9193
lfoot -7.69201 -8.44517
ltoes -27.4042
86
root 0.444865 17.8198 -13.5972 -2.03835 0.294283 -0.685808
lowerback 7.56836 -2.09137 -2.13896
upperback -0.154148 -2.83883 3.21713
thorax -4.13706 -1.33359 4.86471
lowerneck -15.9261 -2.26099 -1.81353
upperneck 20.8993 -2.43591 -1.08298
head 9.21444 -1.40932 -0.375563
rclavicle 1.72694e-015 1.98785e-014
rhumerus -38.4038 -12.0755 -77.9132
rradius 28.569
rwrist 2.30196
rhand -11.0517 20.2171
rfingers 7.12502
rthumb 14.9707 -9.22181
lclavicle 1.72694e-015 1.98785e-014
lhumerus -32.9204 -2.37227 79.6265
lradius 35.8027
lwrist 2.9815
lhand -22.3179 31.1257
lfingers 7.12502
lthumb 4.10184 61.066
rfemur -27.7209 5.39798 21.8799
rtibia 26.1242
rfoot -0.669717 -4.44188
rtoes -0.322974
lfemur 15.6195 -5.94479 -23.9531
ltibia 29.8748
lfoot -6.13874 -8.94818
ltoes -30.6215
87
root 0.422016 17.8373 -13.3949 -2.03967 0.214619 -1.01603
lowerback 7.75235 -2.08389 -1.94523
upperback -0.408008 -2.80107 3.3888
thorax -4.51022 -1.30459 4.95128
lowerneck -15.5258 -2.24244 -1.83772
upperneck 20.8822 -2.40401 -1.13082
head 9.13439 -1.40192 -0.378513
rclavicle 2.95816e-014 -2.70347e-014
rhumerus -38.77 -12.4303 -77.4713
rradius 28.1598
rwrist 2.60636
rhand -10.7965 20.3553
rfingers 7.12502
rthumb 15.2165 -9.06516
lclavicle 2.95816e-014 -2.70347e-014
lhumerus -33.5984 -1.77316 79.741
lradius 35.526
lwrist 2.48122
lhand -24.2988 25.3796
lfingers 7.12502
lthumb 2.18876 55.3481
rfemur -27.4904 5.4006 22.4585
rtibia 26.9407
rfoot -1.02463 -4.21851
rtoes 1.85152
lfemur 14.7411 -5.8427 -23.3688
ltibia 31.9076
lfoot -3.74822 -9.8223
ltoes -30.6525
88
root 0.40013 17.854 -13.1886 -2.19538 0.113398 -1.0977
lowerback 7.84666 -2.03017 -1.89522
upperback -0.399174 -2.72502 3.38846
thorax -4.56386 -1.26679 4.91909
lowerneck -15.6498 -2.22556 -1.70556
upperneck 20.9598 -2.40129 -1.1725
head 9.18142 -1.39512 -0.416743
rclavicle 2.8712e-014 8.74653e-015
rhumerus -38.8916 -13.0176 -77.1963
rradius 27.8875
rwrist 2.88536
rhand -10.574 20.9649
rfingers 7.12502
rthumb 15.4308 -8.43913
lclavicle 2.8712e-014 8.74653e-015
lhumerus -33.9783 -1.38642 79.843
lradius 35.2383
lwrist 2.35437
lhand -27.9596 19.0898
lfingers 7.12502
lthumb -1.34692 49.0652
rfemur -27.1255 5.38503 22.7877
rtibia 27.8368
rfoot -1.37975 -3.64253
rtoes 3.58486
lfemur 13.8073 -5.6455 -23.0741
ltibia 34.0369
lfoot -0.825408 -11.0926
ltoes -28.6679
89
root 0.378504 17.8844 -12.981 -2.34719 0.195271 -1.26142
lowerback 7.84243 -2.01955 -1.72261
upperback -0.343149 -2.69556 3.38471
thorax -4.51373 -1.25818 4.81166
lowerneck -15.9691 -2.2424 -1.55525
upperneck 21.1425 -2.44203 -1.22912
head 9.30077 -1.40914 -0.472358
rclavicle -4.78201e-014 2.14687e-014
rhumerus -38.9591 -13.731 -76.9201
rradius 27.6168
rwrist 3.18443
rhand -10.5887 21.0879
rfingers 7.12502
rthumb 15.4167 -8.31722
lclavicle -4.78201e-014 2.14687e-014
lhumerus -34.2855 -1.09282 79.9208
lradius 35.0159
lwrist 2.07926
lhand -29.8001 17.1316
lfingers 7.12502
lthumb -3.12444 47.0884
rfemur -26.6897 5.42194 23.1492
rtibia 28.7096
rfoot -1.46707 -3.128
rtoes 3.73607
lfemur 12.6561 -5.41125 -22.6067
ltibia 36.2263
lfoot 2.59749 -13.2671
ltoes -22.913
